<svg xmlns="http://www.w3.org/2000/svg" width="153.663" height="153.663" viewBox="0 0 144.059 144.059"><g transform="translate(229.972 -460.16)"><circle cx="-157.942" cy="532.189" r="72.03" style="opacity:1;fill:#ffffff;fill-opacity:0.7461929;stroke:none;stroke-width:4.67551994;stroke-linecap:butt;stroke-miterlimit:4;stroke-dasharray:none;stroke-opacity:1"/><path d="M-227.07 512.133h39.687l.647-45.873a72.03 72.03 0 0 0-40.334 45.873zM-188.693 597.227l.25-43.375-38.203-.288a72.03 72.03 0 0 0 37.953 43.663zM-128.693 466.426v46.06h40.011a72.03 72.03 0 0 0-40.011-46.06zM-88.951 552.777l-39.389-.34v45.32a72.03 72.03 0 0 0 39.389-44.98z" style="opacity:1;fill:#008000;fill-opacity:1;stroke:none;stroke-width:4.67551994;stroke-linecap:butt;stroke-miterlimit:4;stroke-dasharray:none;stroke-opacity:1"/><path d="M-166.03 586.404c-.778-.778-1.275-2.147-2.107-5.805-.417-1.83-.944-3.688-1.172-4.13-.626-1.21-2.291-2.912-5.263-5.378-4.325-3.59-5.004-4.776-6.542-11.42-1.246-5.38-1.82-6.957-3.436-9.436-1.597-2.45-1.627-3.168-.26-6.224 1.331-2.975 1.432-3.697.941-6.722-.872-5.378.074-8.248 5.948-18.036 1.589-2.648 3.787-6.747 4.885-9.11 3.19-6.86 3.982-8.124 7.263-11.58 2.528-2.664 3.14-3.583 5.544-8.329 1.088-2.147 2.327-4.323 2.754-4.836 1.2-1.443 3.19-2.677 7.493-4.643 2.174-.993 4.692-2.29 5.595-2.883 1.4-.917 1.794-1.059 2.65-.95 2.158.274 6.13 2.783 9.339 5.899 1.37 1.33 1.496 1.549 1.496 2.585 0 .848-.29 1.665-1.159 3.259-1.5 2.752-1.65 3.467-1.965 9.377-.443 8.313-.933 10.295-3.508 14.181-.902 1.361-1.768 2.944-1.926 3.516-.158.573-.288 2.582-.289 4.464-.002 4.035-.784 9.14-2.337 15.247-3.016 11.863-6.918 20.269-12.475 26.875-3.043 3.617-4.585 6.064-5.388 8.554-.586 1.816-.712 2.8-.888 6.93-.117 2.74-.355 5.264-.552 5.856-.487 1.465-2.323 3.254-3.339 3.254-.437 0-1.016-.229-1.302-.515z" style="fill:#008000;fill-opacity:1"/></g></svg>