<svg xmlns="http://www.w3.org/2000/svg" width="100" height="100" viewBox="0 0 26.458 26.458"><defs><clipPath id="a" clipPathUnits="userSpaceOnUse"><circle cx="13.229" cy="283.771" r="13.229" style="opacity:1;fill:#ffbe00;fill-opacity:1;fill-rule:nonzero;stroke:none;stroke-width:0.33580014;stroke-linecap:round;stroke-linejoin:miter;stroke-miterlimit:4;stroke-dasharray:none;stroke-dashoffset:0;stroke-opacity:1;paint-order:markers fill stroke"/></clipPath></defs><g transform="translate(0 -270.542)"><circle cx="13.229" cy="-283.771" r="13.229" style="opacity:1;fill:#ffbe00;fill-opacity:1;fill-rule:nonzero;stroke:none;stroke-width:0.57541424;stroke-linecap:round;stroke-linejoin:miter;stroke-miterlimit:4;stroke-dasharray:none;stroke-dashoffset:0;stroke-opacity:1;paint-order:markers fill stroke" transform="scale(1 -1)"/><path d="M21.282 281.315c1.294-.038 2.55 1.713.99 3.389-1.561 1.636-5.787 5.1-7.767 5.177-1.903.076-3.693-1.065-3.693-1.065-2.47 3.437-.728 4.16 3.769 5.483 1.865.457 3.617-.116 6.7-2.286 1.79-1.295 3.655-2.97 5.177-4.528v-9.575c-1.06-.485-2.418-.782-4.11-.706-1.904.038-3.998.114-6.054.152l1.904-2.932s.99-1.56 3.693-3.882h-7.918l-3.694 6.928c-3.426.039-6.51.076-8.604.076H0v4.568c1.295-.075 2.513-.152 3.921-.19.571-.038 2.094-.076 4.036-.152L0 296.657V297h3.311H.001h3.311L13.44 281.58c4.074-.151 7.843-.266 7.843-.266z" clip-path="url(#a)" style="stroke-width:0.26467329"/></g></svg>