<svg height="192px" width="192px" version="1.1" id="_x32_"
    xmlns="http://www.w3.org/2000/svg"
    xmlns:xlink="http://www.w3.org/1999/xlink" viewBox="-102.4 -102.4 716.80 716.80" xml:space="preserve" fill="#DC143C" stroke="#DC143C" stroke-width="0.00512">
    <g id="SVGRepo_bgCarrier" stroke-width="0">
        <rect x="-102.4" y="-102.4" width="716.80" height="716.80" rx="358.4" fill="#DC143C" strokewidth="0"></rect>
    </g>
    <g id="SVGRepo_tracerCarrier" stroke-linecap="round" stroke-linejoin="round"></g>
    <g id="SVGRepo_iconCarrier">
        <style type="text/css"> .st0{fill:#FFFFFF;} </style>
        <g>
            <path class="st0" d="M430.322,47.886c4.325-4.445,4.645-11.414,0.741-16.24l-2.363-2.924c-1.942-2.393-4.716-3.964-7.78-4.404 l-19.524-2.794c-3.734-0.531-7.018-2.763-8.891-6.038l-8.54-14.938l-13.776-0.54c-3.154-0.121-6.238,0.981-8.601,3.083 l-14.137,12.576c-1.061,0.941-2.273,1.682-3.584,2.212L303.43,34.05c-2.784,1.12-5.067,3.213-6.408,5.887l-24.04,48.098 c-1.242,2.483-3.294,4.475-5.816,5.637l-11.154,5.156c-2.374,1.082-4.326,2.914-5.588,5.197l-77.193,140.029 c-1.381,2.513-1.842,5.416-1.291,8.23l6.728,34.772c0.67,3.464-0.19,7.069-2.372,9.852l-6.718,8.59 c-1.802,2.303-2.723,5.166-2.593,8.09l1.161,25.471c0.041,0.991,0.691,1.862,1.632,2.192l10.382,3.634 c0.63,0.22,1.151,0.701,1.422,1.312c0.271,0.61,0.28,1.311,0.02,1.932l-2.232,5.377c-0.231,0.55-0.25,1.171-0.05,1.751 l22.236,63.457c1.202,3.424,3.876,6.148,7.29,7.41l16.039,5.967c2.433,0.901,4.516,2.553,5.948,4.726l18.352,27.814 c1.142,1.742,1.823,3.735,1.983,5.807l2.002,25.992c0.38,4.986,3.754,9.231,8.53,10.733l15.048,4.725 c1.252,0.391,2.584-0.26,3.034-1.482l5.857-15.819c0.35-0.941,0.58-1.922,0.691-2.914l7.389-67.191 c0.23-2.113,1.011-4.135,2.273-5.857l62.004-85.173c1.002-1.382,1.702-2.964,2.063-4.626l27.963-129.997 c0.161-0.78-0.059-1.582-0.59-2.162l-5.807-6.328c-0.741-0.821-0.851-2.023-0.271-2.954l22.608-36.293 c0.09-0.16,0.19-0.321,0.281-0.481l15.248-27.192c0.761-1.362,1.261-2.844,1.462-4.406l1.631-12.515 c0.13-1.002-0.37-1.993-1.271-2.473l-3.154-1.682c-3.815-2.032-6.267-5.916-6.468-10.222l-0.87-18.673 c-0.151-3.383,1.101-6.677,3.464-9.101L430.322,47.886z"></path>
            <polygon class="st0" points="365.984,483.813 366.705,493.885 379.651,502.515 382.525,498.2 381.093,483.813 "></polygon>
            <polygon class="st0" points="370.3,393.924 364.553,391.761 360.959,396.797 364.553,403.275 371.741,403.275 "></polygon>
            <path class="st0" d="M107.813,258c-2.403-0.24-3.834-0.24-2.884-3.834c0.962-3.594-3.114-10.542-7.91-10.303 c-4.795,0.241-5.986,5.507-3.114,4.786c2.874-0.721,5.036,3.364,6.228,5.286c1.201,1.913,0,2.864-2.874,4.306 c-2.874,1.442-0.962,4.555-0.721,6.708c0.24,2.162-3.084,2.482-5.027,2.162c-1.442-0.24-0.24,4.084,3.836,4.315 c4.074,0.24,5.746-0.951,6.708-2.393c0.961-1.442,4.555-4.315,6.708-5.277C110.927,262.796,110.206,258.241,107.813,258z"></path>
            <path class="st0" d="M85.035,249.369c-2.874,1.202-0.72,6.949-0.96,8.63c-0.231,1.682-1.913,2.884-4.315,3.124 c-2.393,0.24-1.913,2.153,0.721,2.874c2.643,0.721,6.237-0.241,7.669-1.912c1.441-1.682,2.643-7.92,2.643-10.313 C90.792,249.369,86.327,248.829,85.035,249.369z"></path>
        </g>
    </g>
</svg>
