<?xml version="1.0" encoding="UTF-8"?>
<!DOCTYPE svg PUBLIC "-//W3C//DTD SVG 1.1//EN" "http://www.w3.org/Graphics/SVG/1.1/DTD/svg11.dtd">
<svg xmlns="http://www.w3.org/2000/svg" width="625" height="625">
<path d="m10 207l38 30-36 69c-18 32 13 63 33 74 19 11 50 12 78 12l51-83 38 21-66-123-135 1m6 169l82 152c17 21 48 26 80 25h87v-144l-165-1c-26 2-59-4-85-32m517-280l-45 19-43-65c-19-31-61-19-80-7-19 12-34 38-48 62l48 85-37 23 140 2 65-119zm-151-77l-173-2c-26 4-46 29-61 58l-42 76 126 70 81-143c11-23 32-50 69-58m8 586l5-48 78-6c37-2 46-44 45-67-1-22-16-48-31-72l-97.16.925-3-43-69 122 73 114m140-94l85-150c9-25-3-54-21-81l-46-74-122 76 86 140c15 21 28 52 17 89z" fill="#006E27"/>
</svg>