<?xml version="1.0" encoding="UTF-8" standalone="no"?>
<svg xmlns="http://www.w3.org/2000/svg" xmlns:xlink="http://www.w3.org/1999/xlink" width="249" height="268" version="1.0">
  <defs>
    <linearGradient id="b">
      <stop offset="0" stop-color="#f4f602"/>
      <stop offset=".51999998" stop-color="#c4bf34"/>
      <stop offset=".67000002" stop-color="#c4bf34"/>
      <stop offset="1" stop-color="#f4f602"/>
    </linearGradient>
    <linearGradient id="c">
      <stop offset="0" stop-color="#783000"/>
      <stop offset=".75"/>
      <stop offset="1" stop-color="#642800"/>
    </linearGradient>
    <linearGradient id="a">
      <stop offset="0" stop-color="#f4f602"/>
      <stop offset="1" stop-color="#c4bf34"/>
    </linearGradient>
    <linearGradient xlink:href="#a" id="g" x1="48.975147" x2="117.85719" y1="87.787521" y2="77.99485" gradientUnits="userSpaceOnUse"/>
    <linearGradient xlink:href="#b" id="e" x1="116.57422" x2="221.6933" y1="98.310341" y2="94.320732" gradientUnits="userSpaceOnUse"/>
    <linearGradient xlink:href="#c" id="d" x1="-3.7498047" x2="4.318048" y1="144.07323" y2="144.07323" gradientUnits="userSpaceOnUse"/>
    <radialGradient xlink:href="#a" id="h" cx="67.081421" cy="84.330505" r="58.420074" fx="67.081421" fy="84.330505" gradientTransform="matrix(1 0 0 1.43098 0 -36.345183)" gradientUnits="userSpaceOnUse"/>
    <radialGradient xlink:href="#a" id="f" cx="175.42162" cy="98.310333" r="72.10807" fx="175.42162" fy="98.310333" gradientTransform="matrix(1 0 0 1.17434 0 -17.13943)" gradientUnits="userSpaceOnUse"/>
  </defs>
  <rect width="8.067853" height="270.80246" x="-3.7498047" y="8.6719856" fill="url(#d)" overflow="visible" rx="4.0339265" ry="4.0339265" transform="matrix(.893 -.45004 .32183 .9468 0 0)"/>
  <path fill="url(#e)" fill-rule="evenodd" stroke="url(#f)" stroke-linejoin="bevel" d="M105.3763 25.576935c-2.30331-26.7039653-3.52694 1.367589 7.19783 3.742874 23.98526 6.09621 48.80235 7.313438 73.41791 5.470354 7.51418-.562622 39.78374-13.08841 40.30788-9.789054-4.38571 8.201727-7.20126 48.576969-4.89453 69.09921-.25876 19.918951 22.8294 71.494501 25.62429 88.389411-33.73353-20.19311-58.73921-25.22073-91.26854-15.54733-7.9533 2.36511-26.76618 3.52866-29.36717-6.622-1.79946-5.18244-.89678-9.13881-1.54548-15.25941-1.8589-17.53904 1.07903 7.51749-3.06113-8.92532-7.39374-29.36454-14.10775-83.85477-16.41106-110.558735z"/>
  <path fill="url(#g)" fill-rule="evenodd" stroke="url(#h)" stroke-linejoin="bevel" d="M9.1613476 12.296609C26.445948 15.515347 55.33847 18.138952 64.333019 14.943221 73.327567 11.74749 82.624071 5.5184845 93.24216 2.3209195c10.92332-3.28948447 15.53899.9599966 17.10118 11.6043735 3.85668 36.484659 13.83963 101.473877 14.65816 132.330577-6.92064-14.65115-27.6787-12.15554-63.315093 21.17289-.027285-12.45729 1.408498-52.56812-12.825886-79.805515-14.234384-27.237396-17.111832-42.202997-24.226675-51.914303C17.519003 25.997636 9.7958865 17.90609 9.1613476 12.296609z"/>
</svg>