<svg height="256.794156" preserveAspectRatio="xMidYMid meet" viewBox="0 0 11975.176 7897.9376" width="389.416961" xmlns="http://www.w3.org/2000/svg"><g transform="translate(-13.3243 -7)"><path d="m1035 7896c-427.502-.3797-1021.6681-442.3361-1021.6686-802l-.007-5959c-.0009-589.9832 521.9391-1127.8685 1031.6756-1127.875l9780-.125c835.281 14.6006 1161.27 465.4131 1161.085 1158.1169l-1.595 5964.8831c-.113 423.6566-442.499 775.3318-886.49 774.9375z" fill="#313370"/><g fill="#fff200"><path d="m70 5772 2010-552c670-210 1026-286 1455-310 489-26 940 49 1391 233 87 36 220 90 294 120 639 260 1078 377 1419 377 282 0 480-82 607-251 49-66 58-85 198-420 198-470 277-579 422-579 268 0 444 413 444 1043 0 255-20 432-62 537-98 248-285 451-507 552-458 209-1062 180-1966-96-217-66-292-93-500-180-523-220-1010-327-1490-327-365-1-667 47-1024 162-129 41-342 125-424 166-2259 743 0 0-2142 707l-123.875 36z"/><path d="m75 4746 325-82 2430-613c290.4371-86.4736 592.9402-164.2576 835-165 254 0 332 14 765 134l1860 509c107 29 230 65 274 82 178 67 265 164 222 247-37 72-147 106-341 106-168-1-292-22-535-94l-1708-501c-268.151-68.6932-491.1213-78.4765-747-31-225 42-382 81-640 157l-2443 678-302 84z"/><path d="m8065 4329c-109-16-216-40-374-84l-1401-385c-943-256-927-251-1028-323-119-86-108-195 26-249 52-20 73-22 237-23 240 0 252 2 810 166l1444 425c148.5 36.5 205 57 401 57 267 0 452-34 964-178l2768-771 13 510-450 113-2636 673c-288.364 70.6472-488.8936 108.5047-774 69z"/><path d="m4055 3831c-120-31-218-140-286-318-78-203-103-378-104-728 0-375 13-453 102-630 50-99 101-170 179-251 191-196 432-299 783-334 315-31 750 23 1226 152 209 56 550 170 685 228 731 316 1411 419 2075 314 276-44 608.8579-166.6777 878-268l2335.607-774.7678-3.607 1220.7678-1250 343c-374 102-734 203-800 225-1006 328-1673 387-2385 214-179-44-270-74-475-159-425-177-809-318-1030-379-595-164-982-137-1204 85-83 84-99 114-240 454-159 382-237 519-331 581-42 28-105 38-155 25z"/></g></g></svg>