<?xml version="1.0" encoding="UTF-8" ?>
<!DOCTYPE svg PUBLIC "-//W3C//DTD SVG 1.1//EN" "http://www.w3.org/Graphics/SVG/1.1/DTD/svg11.dtd">
<svg width="815pt" height="450pt" viewBox="0 0 815 450" version="1.1" xmlns="http://www.w3.org/2000/svg">
<g id="#018002ff">
<path fill="#018002" opacity="1.00" d=" M 0.00 0.00 L 186.00 0.00 C 186.00 150.00 186.00 300.00 186.00 450.00 L 0.00 450.00 L 0.00 0.00 Z" />
<path fill="#018002" opacity="1.00" d=" M 628.00 0.00 L 815.00 0.00 L 815.00 450.00 L 628.00 450.00 C 628.00 300.00 628.00 150.00 628.00 0.00 Z" />
<path fill="#018002" opacity="1.00" d=" M 504.87 22.68 C 508.51 21.48 511.72 24.71 513.46 27.55 C 516.53 32.53 520.65 36.94 525.92 39.65 C 532.81 41.73 540.74 42.61 546.25 47.73 C 549.39 50.19 550.05 54.40 551.31 57.96 C 547.88 59.41 544.49 61.06 541.49 63.28 C 533.43 77.43 535.64 94.76 541.04 109.47 C 540.83 115.40 535.93 119.92 532.87 124.68 C 529.78 130.55 530.02 137.71 526.35 143.32 C 523.73 148.35 517.85 150.99 516.55 156.83 C 512.64 164.21 513.61 172.86 511.90 180.82 C 509.94 189.18 507.38 197.38 505.15 205.67 C 501.17 216.31 500.42 227.79 498.29 238.87 C 494.58 253.58 484.34 265.83 482.59 281.13 C 476.70 289.79 473.96 300.87 465.48 307.54 C 460.02 311.94 459.31 319.60 454.65 324.68 C 450.58 330.62 442.93 332.99 439.32 339.31 C 435.42 346.09 432.30 353.30 429.39 360.55 C 424.54 375.49 428.98 391.57 425.55 406.76 C 424.45 411.93 420.51 415.79 418.23 420.41 C 413.08 419.78 407.82 419.31 402.75 420.71 C 401.76 412.84 401.45 404.93 400.75 397.04 C 399.76 388.95 395.45 381.87 392.31 374.50 C 388.20 365.88 378.28 363.14 371.00 358.00 C 362.42 353.21 355.90 345.74 349.06 338.87 C 348.90 334.34 352.19 328.52 348.61 324.53 C 343.02 317.96 342.00 309.02 338.32 301.52 C 332.68 296.43 329.53 289.37 326.84 282.42 C 325.78 277.66 324.82 271.99 327.90 267.76 C 334.37 259.61 336.19 248.41 334.93 238.31 C 332.83 231.86 333.51 224.80 335.44 218.38 C 337.70 212.17 338.46 205.15 343.07 200.05 C 346.48 195.20 351.98 192.19 354.82 186.89 C 356.82 183.97 357.31 180.44 358.56 177.21 C 360.84 172.30 366.17 169.82 368.86 165.23 C 371.51 159.41 375.46 154.32 378.20 148.56 C 381.62 137.76 388.58 128.39 396.38 120.33 C 400.68 115.70 400.49 108.54 405.06 104.06 C 407.93 99.84 412.63 97.74 417.12 95.74 C 421.93 92.13 426.58 87.34 427.09 80.96 C 428.48 75.15 432.90 70.80 435.51 65.55 C 438.79 60.94 440.18 54.22 445.86 51.78 C 456.64 46.61 468.22 43.26 479.84 40.54 C 484.15 39.10 486.40 34.68 489.94 32.08 C 494.81 28.79 498.71 23.68 504.87 22.68 M 359.30 342.31 C 360.65 344.51 362.05 346.70 363.37 348.92 C 363.95 348.46 365.09 347.54 365.66 347.08 C 363.68 345.30 361.54 343.71 359.30 342.31 Z" />
<path fill="#018002" opacity="1.00" d=" M 285.07 203.88 C 286.41 204.33 287.76 204.80 289.11 205.26 C 288.12 206.27 287.13 207.27 286.15 208.27 C 285.57 207.90 284.42 207.15 283.85 206.78 C 284.25 205.81 284.66 204.84 285.07 203.88 Z" />
<path fill="#018002" opacity="1.00" d=" M 279.31 214.28 C 281.94 214.54 284.58 215.15 286.82 216.63 C 284.23 216.16 281.69 215.41 279.31 214.28 Z" />
<path fill="#018002" opacity="1.00" d=" M 273.45 217.08 C 274.81 217.09 276.18 217.11 277.56 217.13 C 276.17 221.83 275.90 227.92 269.97 229.23 C 271.48 225.28 272.50 221.18 273.45 217.08 Z" />
<path fill="#018002" opacity="1.00" d=" M 280.24 223.69 C 284.63 224.43 290.35 221.53 294.05 224.92 C 295.20 225.87 296.29 226.90 297.38 227.92 C 292.51 228.46 287.62 230.11 284.26 233.84 C 282.48 232.87 280.71 231.87 278.95 230.89 C 279.39 228.49 279.83 226.09 280.24 223.69 Z" />
<path fill="#018002" opacity="1.00" d=" M 272.28 235.07 C 274.90 234.72 277.51 235.23 279.82 236.53 C 277.26 236.28 274.72 235.87 272.28 235.07 Z" />
<path fill="#018002" opacity="1.00" d=" M 273.01 245.62 C 273.44 248.23 273.54 250.73 273.86 253.41 C 273.51 250.82 273.25 248.20 273.01 245.62 Z" />
<path fill="#018002" opacity="1.00" d=" M 265.20 257.31 C 266.67 257.25 266.67 259.74 265.20 259.69 C 263.73 259.70 263.73 257.29 265.20 257.31 Z" />
<path fill="#018002" opacity="1.00" d=" M 491.09 330.63 C 495.41 330.00 498.82 332.14 500.33 335.99 C 499.34 336.65 497.36 337.96 496.37 338.62 C 494.42 336.08 492.63 333.43 491.09 330.63 Z" />
<path fill="#018002" opacity="1.00" d=" M 359.28 373.56 C 360.57 371.42 361.95 369.34 363.46 367.35 C 363.40 369.58 363.29 371.81 363.19 374.05 C 362.21 373.93 360.26 373.68 359.28 373.56 Z" />
<path fill="#018002" opacity="1.00" d=" M 496.19 401.86 C 499.13 401.71 502.00 401.62 504.97 401.65 C 506.52 405.52 508.18 409.35 509.38 413.36 C 504.00 410.83 498.61 407.58 496.19 401.86 Z" />
</g>
<g id="#fefffeff">
<path fill="#fefffe" opacity="1.00" d=" M 186.00 0.00 L 628.00 0.00 C 628.00 150.00 628.00 300.00 628.00 450.00 L 186.00 450.00 C 186.00 300.00 186.00 150.00 186.00 0.00 M 504.87 22.68 C 498.71 23.68 494.81 28.79 489.94 32.08 C 486.40 34.68 484.15 39.10 479.84 40.54 C 468.22 43.26 456.64 46.61 445.86 51.78 C 440.18 54.22 438.79 60.94 435.51 65.55 C 432.90 70.80 428.48 75.15 427.09 80.96 C 426.58 87.34 421.93 92.13 417.12 95.74 C 412.63 97.74 407.93 99.84 405.06 104.06 C 400.49 108.54 400.68 115.70 396.38 120.33 C 388.58 128.39 381.62 137.76 378.20 148.56 C 375.46 154.32 371.51 159.41 368.86 165.23 C 366.17 169.82 360.84 172.30 358.56 177.21 C 357.31 180.44 356.82 183.97 354.82 186.89 C 351.98 192.19 346.48 195.20 343.07 200.05 C 338.46 205.15 337.70 212.17 335.44 218.38 C 333.51 224.80 332.83 231.86 334.93 238.31 C 336.19 248.41 334.37 259.61 327.90 267.76 C 324.82 271.99 325.78 277.66 326.84 282.42 C 329.53 289.37 332.68 296.43 338.32 301.52 C 342.00 309.02 343.02 317.96 348.61 324.53 C 352.19 328.52 348.90 334.34 349.06 338.87 C 355.90 345.74 362.42 353.21 371.00 358.00 C 378.28 363.14 388.20 365.88 392.31 374.50 C 395.45 381.87 399.76 388.95 400.75 397.04 C 401.45 404.93 401.76 412.84 402.75 420.71 C 407.82 419.31 413.08 419.78 418.23 420.41 C 420.51 415.79 424.45 411.93 425.55 406.76 C 428.98 391.57 424.54 375.49 429.39 360.55 C 432.30 353.30 435.42 346.09 439.32 339.31 C 442.93 332.99 450.58 330.62 454.65 324.68 C 459.31 319.60 460.02 311.94 465.48 307.54 C 473.96 300.87 476.70 289.79 482.59 281.13 C 484.34 265.83 494.58 253.58 498.29 238.87 C 500.42 227.79 501.17 216.31 505.15 205.67 C 507.38 197.38 509.94 189.18 511.90 180.82 C 513.61 172.86 512.64 164.21 516.55 156.83 C 517.85 150.99 523.73 148.35 526.35 143.32 C 530.02 137.71 529.78 130.55 532.87 124.68 C 535.93 119.92 540.83 115.40 541.04 109.47 C 535.64 94.76 533.43 77.43 541.49 63.28 C 544.49 61.06 547.88 59.41 551.31 57.96 C 550.05 54.40 549.39 50.19 546.25 47.73 C 540.74 42.61 532.81 41.73 525.92 39.65 C 520.65 36.94 516.53 32.53 513.46 27.55 C 511.72 24.71 508.51 21.48 504.87 22.68 M 285.07 203.88 C 284.66 204.84 284.25 205.81 283.85 206.78 C 284.42 207.15 285.57 207.90 286.15 208.27 C 287.13 207.27 288.12 206.27 289.11 205.26 C 287.76 204.80 286.41 204.33 285.07 203.88 M 279.31 214.28 C 281.69 215.41 284.23 216.16 286.82 216.63 C 284.58 215.15 281.94 214.54 279.31 214.28 M 273.45 217.08 C 272.50 221.18 271.48 225.28 269.97 229.23 C 275.90 227.92 276.17 221.83 277.56 217.13 C 276.18 217.11 274.81 217.09 273.45 217.08 M 280.24 223.69 C 279.83 226.09 279.39 228.49 278.95 230.89 C 280.71 231.87 282.48 232.87 284.26 233.84 C 287.62 230.11 292.51 228.46 297.38 227.92 C 296.29 226.90 295.20 225.87 294.05 224.92 C 290.35 221.53 284.63 224.43 280.24 223.69 M 272.28 235.07 C 274.72 235.87 277.26 236.28 279.82 236.53 C 277.51 235.23 274.90 234.72 272.28 235.07 M 273.01 245.62 C 273.25 248.20 273.51 250.82 273.86 253.41 C 273.54 250.73 273.44 248.23 273.01 245.62 M 265.20 257.31 C 263.73 257.29 263.73 259.70 265.20 259.69 C 266.67 259.74 266.67 257.25 265.20 257.31 M 491.09 330.63 C 492.63 333.43 494.42 336.08 496.37 338.62 C 497.36 337.96 499.34 336.65 500.33 335.99 C 498.82 332.14 495.41 330.00 491.09 330.63 M 359.28 373.56 C 360.26 373.68 362.21 373.93 363.19 374.05 C 363.29 371.81 363.40 369.58 363.46 367.35 C 361.95 369.34 360.57 371.42 359.28 373.56 M 496.19 401.86 C 498.61 407.58 504.00 410.83 509.38 413.36 C 508.18 409.35 506.52 405.52 504.97 401.65 C 502.00 401.62 499.13 401.71 496.19 401.86 Z" />
<path fill="#fefffe" opacity="1.00" d=" M 359.30 342.31 C 361.54 343.71 363.68 345.30 365.66 347.08 C 365.09 347.54 363.95 348.46 363.37 348.92 C 362.05 346.70 360.65 344.51 359.30 342.31 Z" />
</g>
</svg>
