<svg xmlns="http://www.w3.org/2000/svg" width="300" height="305.626" viewBox="0 0 240 244.501"><path d="M235.45 4.53c62.29-4.72 125.56 17.55 172.37 58.64 31.82 27.46 55.77 63.63 69.94 103.12 11.75 33.47 16.13 69.43 13.53 104.77-5.9 73.2-45.92 143.24-107.27 183.97-61.75 42.56-144.43 52.81-214.74 26.75-67.36-24.08-122.23-79.95-145.67-147.47C13.15 306.15 8.91 275.95 8.98 246c.47-81.65 44.55-161.83 113.95-205.08 33.6-21.45 72.73-34.01 112.52-36.39m-63.93 44.42c.23 12.88 9.61 22.7 20.23 28.73-9.39 13.24-22.14 23.46-34 34.35 15.93-3.22 31.51-7.94 47.31-11.69 9.34-2.47 19.66-2.86 27.87-8.45 5.35-3.35 9.77-9.09 9.56-15.69-2.29-10.19-11.6-16.33-20.63-20.05-16.02-6.04-33.33-7.69-50.34-7.2m172.07 33.76c1.26 4.8 2.73 9.53 4.28 14.24.85 1.93-.37 3.85-1.38 5.44-7.39 10.8-15.96 20.72-24.46 30.64-15.47 17.87-36.12 30.42-57.78 39.39-.07.62-.19 1.85-.25 2.46 6.12 1.95 12.59 3.03 18.47 5.67 1.92 2.34 2.78 5.34 4.07 8.04 2.13 5.25 6 10.42 4.64 16.39-3.65 26.88-5 53.97-6.31 81.04.46 8.98-3.97 17.38-3.11 26.33 2.39 17 7.95 33.96 18.78 47.54 2.67-1.63 5.82-3.58 6.14-7.03 2.86-30.12 3.7-60.39 5.38-90.59 17.65 4.81 35.63-1.23 51.15-9.56 1.97 31.04-.14 62.18 1.18 93.26 1.21 24 .25 48.03.64 72.05.09 11.71 1.55 23.92 7.9 34.06 13.19-3.83 16.96-19.05 17.86-31.1 1.62-52.04 1.72-104.26 8.21-156.01.8-6.02 1.24-12.22.15-18.23-1.36-3.87-3.81-7.24-5.88-10.75 17.62-5.69 36.68-8.97 52.08-19.82-2.83-6.24-5.76-12.97-12-16.53-8.26-4.55-18.42-7.44-27.64-3.95-30.23 9.85-56.38 29.66-87.67 36.71 1.83-8.14 5.37-16.25 4.26-24.76-1.12-11.59-8.47-21.3-16.2-29.51 22.87-6.52 42.05-21.05 62.56-32.47 9.43-6 20.96-11.24 25.79-21.96.14-12.39-7.05-24.06-16.55-31.58-10.16-6.54-22.32-9.24-34.31-9.41m-112.37 17.51c-19.98 20.43-48.78 28.2-76.23 31.88-10.4 2.57-18.74-5.85-25.95-12.01.47 7.01.8 14.03 1.07 21.05 13.41 11.67 30.96 17.44 48.5 18.72-6.82 6.21-14.57 11.63-23.47 14.35-8.23 2.38-16.78 3.42-25.29 4.15 1.61 15.39 1.05 33.32 12.41 45.41 2.45 2.98 6.56 1.22 9.43-.06 15.05-8.02 27-20.57 41.39-29.61 11.37-7.23 22.86-14.94 36.03-18.47-7.25 15.82-18.27 29.72-31.47 40.99-7.91 6.84-18.28 9.25-27.61 13.43-37.9 16.49-75.84 32.92-114.32 48.05.75 6.46.38 14.63 6.25 18.92 13.02 6.27 28.08 8.32 42.34 6.23 8.38-3.68 14.42-10.88 21.02-16.93 8.92-8.6 20.1-14.13 30.71-20.27 11.41-6.58 23.34-12.95 36.54-14.89.71 5.99 1.34 12 1.72 18.02-19.84 8.62-40.33 16.7-61.97 19.24 2.32 10.19 8.28 19.75 17.72 24.71-6.3 10.39-15.04 19.08-21.61 29.22-1.19 11.87-.32 24.79 5.44 35.53 10.37-2.65 19-9.31 27.82-15.03 11.4 19.5 23.64 40.09 43.69 51.78 5.42 1.97 7.74-5.16 9.46-8.77 8.44-21 1.33-43.99 3.26-65.86 1.24-15.56.53-31.4 3.12-46.76 5.68-4.56 12.94-6.92 18.97-11.08 9.7-7.79 23.79-1.88 33.6-9.39 2.39-1.6 4.03-3.97 5.82-6.15-6.27-5.52-13.11-11.01-21.42-12.95-11.01-2.57-23.54-4.56-33.55 2.11-.12-4.78-.62-9.58-1.88-14.19 16.79-5.97 34.86-6.03 52.11-10.07-.07-7.62.64-15.45-1.52-22.86-2.05-5.02-8.17-5.96-12.7-7.41 2.45-11.76.75-24.52-4.71-35.22-3.85-8.93-15.61-7.03-23.42-8.82 10.25-11.06 22.11-20.41 33.55-30.17 4.34-3.89.73-10.61.4-15.41-1.31-7.75-8.81-12.33-15.85-14.27-6.39-1.51-14.9-3.29-19.4 2.86m23.86 205.56c-8.77-2.02-17.65-3.52-26.62-4.25-3.74 6.86.59 14.23 3.6 20.44 5.14 11.34 15.4 20.38 27.77 22.79 9.19-16.75 9.88-36.55 11.95-55.11-5.96 4.95-11.44 10.44-16.7 16.13z" style="fill:#fedb02" transform="matrix(.49686 0 0 .49686 -4.461 -1.94)"/><path d="M170.58 318.4c8.19-2.51 15.53-7.18 23.33-10.63-.01 2.74-.04 8.23-.06 10.97-14.64 8.26-29.76 15.71-45.51 21.62 2.11-8.33 3.75-16.76 4.92-25.27 5.62 1.54 11.41 4.07 17.32 3.31zM167.2 357.92c9.35-8.97 19.16-17.81 25.82-29.08.07 8.39.28 16.78-.16 25.17-.3 5.17-5.84 8.99-10.89 7.99-5.33.48-10.04-2.16-14.77-4.08z" style="fill:#fedb02" transform="matrix(.49686 0 0 .49686 -4.461 -1.94)"/><path d="M171.52 48.95c17.01-.49 34.32 1.16 50.34 7.2 9.03 3.72 18.34 9.86 20.63 20.05.21 6.6-4.21 12.34-9.56 15.69-8.21 5.59-18.53 5.98-27.87 8.45-15.8 3.75-31.38 8.47-47.31 11.69 11.86-10.89 24.61-21.11 34-34.35-10.62-6.03-20-15.85-20.23-28.73zM343.59 82.71c11.99.17 24.15 2.87 34.31 9.41 9.5 7.52 16.69 19.19 16.55 31.58-4.83 10.72-16.36 15.96-25.79 21.96-20.51 11.42-39.69 25.95-62.56 32.47 7.73 8.21 15.08 17.92 16.2 29.51 1.11 8.51-2.43 16.62-4.26 24.76 31.29-7.05 57.44-26.86 87.67-36.71 9.22-3.49 19.38-.6 27.64 3.95 6.24 3.56 9.17 10.29 12 16.53-15.4 10.85-34.46 14.13-52.08 19.82 2.07 3.51 4.52 6.88 5.88 10.75 1.09 6.01.65 12.21-.15 18.23-6.49 51.75-6.59 103.97-8.21 156.01-.9 12.05-4.67 27.27-17.86 31.1-6.35-10.14-7.81-22.35-7.9-34.06-.39-24.02.57-48.05-.64-72.05-1.32-31.08.79-62.22-1.18-93.26-15.52 8.33-33.5 14.37-51.15 9.56-1.68 30.2-2.52 60.47-5.38 90.59-.32 3.45-3.47 5.4-6.14 7.03-10.83-13.58-16.39-30.54-18.78-47.54-.86-8.95 3.57-17.35 3.11-26.33 1.31-27.07 2.66-54.16 6.31-81.04 1.36-5.97-2.51-11.14-4.64-16.39-1.29-2.7-2.15-5.7-4.07-8.04-5.88-2.64-12.35-3.72-18.47-5.67.06-.61.18-1.84.25-2.46 21.66-8.97 42.31-21.52 57.78-39.39 8.5-9.92 17.07-19.84 24.46-30.64 1.01-1.59 2.23-3.51 1.38-5.44-1.55-4.71-3.02-9.44-4.28-14.24z" style="fill:#0e1e8b" transform="matrix(.49686 0 0 .49686 -4.461 -1.94)"/><path d="M231.22 100.22c4.5-6.15 13.01-4.37 19.4-2.86 7.04 1.94 14.54 6.52 15.85 14.27.33 4.8 3.94 11.52-.4 15.41-11.44 9.76-23.3 19.11-33.55 30.17 7.81 1.79 19.57-.11 23.42 8.82 5.46 10.7 7.16 23.46 4.71 35.22 4.53 1.45 10.65 2.39 12.7 7.41 2.16 7.41 1.45 15.24 1.52 22.86-17.25 4.04-35.32 4.1-52.11 10.07 1.26 4.61 1.76 9.41 1.88 14.19 10.01-6.67 22.54-4.68 33.55-2.11 8.31 1.94 15.15 7.43 21.42 12.95-1.79 2.18-3.43 4.55-5.82 6.15-9.81 7.51-23.9 1.6-33.6 9.39-6.03 4.16-13.29 6.52-18.97 11.08-2.59 15.36-1.88 31.2-3.12 46.76-1.93 21.87 5.18 44.86-3.26 65.86-1.72 3.61-4.04 10.74-9.46 8.77-20.05-11.69-32.29-32.28-43.69-51.78-8.82 5.72-17.45 12.38-27.82 15.03-5.76-10.74-6.63-23.66-5.44-35.53 6.57-10.14 15.31-18.83 21.61-29.22-9.44-4.96-15.4-14.52-17.72-24.71 21.64-2.54 42.13-10.62 61.97-19.24-.38-6.02-1.01-12.03-1.72-18.02-13.2 1.94-25.13 8.31-36.54 14.89-10.61 6.14-21.79 11.67-30.71 20.27-6.6 6.05-12.64 13.25-21.02 16.93-14.26 2.09-29.32.04-42.34-6.23-5.87-4.29-5.5-12.46-6.25-18.92 38.48-15.13 76.42-31.56 114.32-48.05 9.33-4.18 19.7-6.59 27.61-13.43 13.2-11.27 24.22-25.17 31.47-40.99-13.17 3.53-24.66 11.24-36.03 18.47-14.39 9.04-26.34 21.59-41.39 29.61-2.87 1.28-6.98 3.04-9.43.06-11.36-12.09-10.8-30.02-12.41-45.41 8.51-.73 17.06-1.77 25.29-4.15 8.9-2.72 16.65-8.14 23.47-14.35-17.54-1.28-35.09-7.05-48.5-18.72-.27-7.02-.6-14.04-1.07-21.05 7.21 6.16 15.55 14.58 25.95 12.01 27.45-3.68 56.25-11.45 76.23-31.88M170.58 318.4c-5.91.76-11.7-1.77-17.32-3.31-1.17 8.51-2.81 16.94-4.92 25.27 15.75-5.91 30.87-13.36 45.51-21.62.02-2.74.05-8.23.06-10.97-7.8 3.45-15.14 8.12-23.33 10.63m-3.38 39.52c4.73 1.92 9.44 4.56 14.77 4.08 5.05 1 10.59-2.82 10.89-7.99.44-8.39.23-16.78.16-25.17-6.66 11.27-16.47 20.11-25.82 29.08z" style="fill:#0e1e8b" transform="matrix(.49686 0 0 .49686 -4.461 -1.94)"/><path d="M255.08 305.78c5.26-5.69 10.74-11.18 16.7-16.13-2.07 18.56-2.76 38.36-11.95 55.11-12.37-2.41-22.63-11.45-27.77-22.79-3.01-6.21-7.34-13.58-3.6-20.44 8.97.73 17.85 2.23 26.62 4.25z" style="fill:#0e1e8b" transform="matrix(.49686 0 0 .49686 -4.461 -1.94)"/></svg>