<svg xmlns="http://www.w3.org/2000/svg" width="595" height="595" viewBox="0 0 157.427 157.427"><g transform="matrix(.26458 0 0 .26458 -.04 -.04)"><circle cx="297.65" cy="297.65" r="297.5" style="fill:#28c8c8;fill-opacity:1;stroke:none;stroke-width:4.78809071;stroke-miterlimit:4;stroke-dasharray:none;stroke-opacity:1"/><path d="M124.04 231.642h341.572c1.472 0 2.7-1.227 2.7-2.7V91.529c0-1.472-1.228-2.699-2.7-2.699H124.04c-1.472 0-2.7 1.227-2.7 2.7v137.414c0 1.472 1.228 2.699 2.7 2.699zM365.986 130.79c0-1.473 1.227-2.7 2.699-2.7h40.12c1.472 0 2.7 1.227 2.7 2.7v58.155c0 1.473-1.228 2.7-2.7 2.7h-40.243c-1.472 0-2.7-1.227-2.7-2.7V130.79zm-93.982 0c0-1.473 1.227-2.7 2.7-2.7h40.242c1.472 0 2.7 1.227 2.7 2.7v58.155c0 1.473-1.228 2.7-2.7 2.7h-40.243c-1.472 0-2.7-1.227-2.7-2.7zm-93.859 0c0-1.473 1.227-2.7 2.7-2.7h40.242c1.472 0 2.7 1.227 2.7 2.7v58.155c0 1.473-1.228 2.7-2.7 2.7h-40.243c-1.472 0-2.699-1.227-2.699-2.7zM477.39 304.275v-40.733c0-1.473-1.226-2.7-2.699-2.7h-360.1c-1.471 0-2.698 1.227-2.698 2.7v40.733c0 1.473 1.227 2.7 2.699 2.7h143.917c1.472 0 2.7 1.226 2.7 2.699v194.098c0 1.472 1.226 2.699 2.698 2.699h61.837c1.472 0 2.699-1.227 2.699-2.7v-194.22c0-1.472 1.227-2.7 2.7-2.7h143.794c1.227 0 2.453-1.103 2.453-2.576zM246.853 447.211c-6.38-2.7-27.973-13.619-45.518-41.102 7.116-31.286 7.852-59.628 7.852-67.603 0-1.227-.859-2.33-2.209-2.576l-41.101-7.484c-1.595-.246-3.067.858-3.067 2.453-.982 17.177-7.853 102.448-53.74 116.435-1.226.368-2.085 1.595-1.84 2.944l8.957 53.37c.245 1.473 1.595 2.455 3.067 2.21 28.587-4.54 48.463-22.699 61.714-44.66.981-1.718 3.435-1.718 4.417 0 19.385 29.936 43.31 40.856 51.653 44.046 1.595.613 3.313-.368 3.558-2.086l7.852-53.125c.123-1.227-.49-2.331-1.595-2.822zm239.494.245c-7.484-2.576-33.986-13.496-51.653-41.224 8.466-36.93 7.852-69.812 7.852-69.812l-46.255-8.343S393.47 435.064 340.1 448.07l9.815 58.278c29.814-3.803 50.549-22.33 64.168-44.782.981-1.718 3.558-1.718 4.54 0 16.44 27.728 48.217 40.488 58.155 43.8 1.595.491 3.19-.49 3.435-2.085l7.853-53.003a2.454 2.454 0 0 0-1.718-2.822z" class="st1" style="fill:#ffffff;fill-opacity:1;stroke-width:1.22691453"/></g></svg>