<svg version="1.1" id="_x32_"
  xmlns="http://www.w3.org/2000/svg"
  xmlns:xlink="http://www.w3.org/1999/xlink" viewBox="0 0 512 512" xml:space="preserve" width="800px" height="800px" fill="#000000">

  <g id="SVGRepo_bgCarrier" stroke-width="0"/>

  <g id="SVGRepo_tracerCarrier" stroke-linecap="round" stroke-linejoin="round"/>

  <g id="SVGRepo_iconCarrier">
    <style type="text/css"> .st0{fill:#FFD700;} </style>
    <g>
      <rect x="146.663" y="55.252" class="st0" width="46.389" height="17.681"/>
      <polygon class="st0" points="206.033,149.149 188.641,78.726 163.786,78.726 155.501,78.726 155.501,97.782 167.691,109.972 175.385,171.518 "/>
      <path class="st0" d="M368.801,250.766l-30.247-25.092c-2.906-2.413-6.655-3.557-10.409-3.176c-3.755,0.382-7.2,2.242-9.568,5.188 l-10.554,13.125l16.649,87.072l46.12-57.456C375.613,264.429,374.725,255.677,368.801,250.766z"/>
      <rect x="138.102" y="452.348" class="st0" width="225.347" height="59.652"/>
      <path class="st0" d="M223.615,127.384c-0.152,0.565-0.401,1.085-0.52,1.663c19.45-3.774,39.617-3.82,59.081-0.145 c-0.026-0.125-0.092-0.243-0.118-0.368l22.843-14.604c0.526-0.329,0.73-0.999,0.486-1.565c-0.25-0.572-0.874-0.882-1.472-0.73 l-26.315,6.569c-0.572-0.842-1.243-1.578-1.894-2.354l8.989-25.848c0.204-0.578-0.04-1.217-0.572-1.519 c-0.533-0.302-1.196-0.184-1.591,0.283l-17.294,20.535c-2.005-0.131-4.011-0.184-6.023-0.256l-5.411-29.346 c-0.119-0.598-0.638-1.039-1.25-1.039c-0.611,0-1.137,0.441-1.242,1.039l-5.432,29.372c-2.478,0.099-4.951,0.145-7.423,0.342 l-17.379-20.647c-0.394-0.467-1.065-0.592-1.604-0.283c-0.532,0.296-0.77,0.94-0.572,1.512l9.304,26.769l1.184-0.671 c-0.795,0.966-1.539,1.96-2.209,3.025l0.92-2.13l-26.512-6.622c-0.604-0.145-1.222,0.158-1.472,0.73 c-0.244,0.572-0.04,1.236,0.486,1.572L223.615,127.384z"/>
      <path class="st0" d="M296.076,213.608c-0.868-4.57-3.938-8.41-8.193-10.271l-65.281-28.505l-9.107-23.198l-41.34,32.674 c-5.688,4.49-7.042,12.572-3.117,18.667l15.459,24.046l-2.078,1.604c-5.109,3.932-6.904,10.83-4.346,16.748l10.04,23.264 l20.404-21.048l4.754,4.616l-36.093,37.243l5.063,40.518l18.819-19.41l4.76,4.616l-28.07,28.958l-5.458,101.59h156.574 l-4.359-28.972l9.942-2.492L296.076,213.608z M243.993,410.305l-6.312-2.026l28.162-87.821l6.312,2.025L243.993,410.305z"/>
      <path class="st0" d="M157.71,49.176h8.778c-3.557-3.288-6.819-13.19,1.992-21.541c3.866-6.075,3.866-6.075,3.866-6.075 s9.916,14.623,3.354,27.616h6.312c0,0,6.628-3.866,7.18-18.779c0.552-14.913-12.152-29.82-18.78-30.372 c-6.628-0.552,1.105,8.278-12.704,17.668C143.901,27.083,149.977,45.31,157.71,49.176z"/>
      <path class="st0" d="M228.587,164.582l-3.051,3.051l0.526,1.341l40.367,17.629c7.088-3.551,12.552-9.817,15.084-17.432 l-28.051-31.996L228.587,164.582z"/>
      <path class="st0" d="M283.057,159.347l-0.243-23.296l-1.874-0.356c-7.108-1.348-14.355-2.157-21.64-2.466l23.73,27.071 C283.037,159.985,283.057,159.67,283.057,159.347z"/>
      <path class="st0" d="M222.511,136.189l0.244,23.796c0,0.02,0,0.033,0,0.053l24.756-26.821c-7.785,0.283-15.55,1.137-23.146,2.616 L222.511,136.189z"/>
    </g>
  </g>

</svg>
